<svg width="20" height="55" viewBox="0 0 20 55" fill="none" xmlns="http://www.w3.org/2000/svg">
<path d="M0.305404 42.9359V11.2768C0.305404 3.64185 2.96702 0 9.83144 0C15.785 0 19.4276 2.31175 19.4276 11.2768V21.1528H12.4931V9.66628C12.4931 6.93454 11.7926 5.67384 9.83144 5.67384C8.15004 5.67384 7.23993 6.7249 7.23993 9.52604V43.7072C7.23993 45.3886 7.45029 47.4893 9.83144 47.4893C11.7225 47.4893 12.4931 46.0883 12.4931 43.4267V34.6712L16.205 31.4494H10.7415V25.005H19.4269V53.7927H15.0846L14.734 50.0808H14.5937C13.753 53.093 11.1615 54.2828 8.57004 54.2828C3.80773 54.2828 0.304688 51.5511 0.304688 42.9359H0.305404Z" fill="#FBF7EC"/>
</svg>
