<svg width="21" height="54" viewBox="0 0 21 54" fill="none" xmlns="http://www.w3.org/2000/svg">
<path d="M0.474855 0.55957H10.3508C16.5147 0.55957 19.5963 4.55201 19.5963 10.0155V19.0514C19.5963 23.7443 17.7747 26.1262 14.8333 26.6163V26.6864C17.9149 26.9669 19.5262 29.3481 19.5262 32.9906V50.5008C19.5262 52.3926 19.5964 52.8126 20.0163 53.1624V53.7928H13.2921C12.9423 52.9521 12.802 52.1815 12.802 47.5587V33.06C12.802 31.3085 12.3112 30.5386 10.7708 30.5386H8.59924C7.68913 30.5386 7.47877 30.9586 7.47877 32.1499V53.7935H0.474121V0.55957H0.474855ZM10.632 23.6735C11.9628 23.6735 12.8035 22.6926 12.8035 20.6613V10.5049C12.8035 8.96372 12.523 6.93245 9.79126 6.93245H7.4795V23.6728H10.6312L10.632 23.6735Z" fill="#FBF7EC"/>
</svg>
