<svg width="24" height="24" viewBox="0 0 24 24" fill="none" xmlns="http://www.w3.org/2000/svg">
<g id="instagram_logo.svg" clip-path="url(#clip0_49_473)">
<path id="Vector" d="M7.34072 0.82868C6.14372 0.885155 5.32629 1.07618 4.61169 1.35698C3.87212 1.6452 3.24527 2.03198 2.62157 2.65793C1.99787 3.28388 1.61379 3.91118 1.32759 4.65188C1.05062 5.36806 0.862968 6.18616 0.810093 7.38383C0.757218 8.58151 0.745518 8.96648 0.751368 12.0215C0.757218 15.0766 0.770718 15.4595 0.828768 16.6597C0.885918 17.8565 1.07627 18.6737 1.35707 19.3885C1.64574 20.1281 2.03207 20.7547 2.65824 21.3786C3.28442 22.0025 3.91127 22.3857 4.65377 22.6724C5.36927 22.9489 6.18759 23.1374 7.38504 23.1899C8.58249 23.2423 8.96792 23.2544 12.0221 23.2486C15.0762 23.2427 15.4607 23.2292 16.6607 23.1723C17.8606 23.1154 18.6735 22.9237 19.3886 22.6442C20.1281 22.3549 20.7552 21.9692 21.3787 21.3428C22.0022 20.7164 22.386 20.0887 22.672 19.3475C22.9492 18.632 23.1375 17.8137 23.1895 16.6172C23.2419 15.4163 23.2543 15.0329 23.2484 11.9783C23.2426 8.92373 23.2289 8.54078 23.1719 7.34108C23.115 6.14138 22.9244 5.32666 22.6439 4.61138C22.3547 3.87181 21.9689 3.24563 21.3429 2.62125C20.717 1.99688 20.0888 1.61325 19.3478 1.32795C18.6319 1.05098 17.814 0.862205 16.6166 0.810455C15.4191 0.758705 15.0337 0.74543 11.9784 0.75128C8.92314 0.75713 8.54064 0.77018 7.34072 0.82868ZM7.47212 21.166C6.37524 21.1183 5.77967 20.936 5.38277 20.7835C4.85717 20.581 4.48277 20.3362 4.08722 19.9445C3.69167 19.5527 3.44867 19.177 3.24347 18.6525C3.08934 18.2556 2.90372 17.6607 2.85242 16.5638C2.79662 15.3783 2.78492 15.0224 2.77839 12.0188C2.77187 9.01531 2.78334 8.65981 2.83532 7.47383C2.88212 6.37786 3.06549 5.78161 3.21782 5.38493C3.42032 4.85866 3.66422 4.48493 4.05684 4.08961C4.44947 3.69428 4.82409 3.45083 5.34902 3.24563C5.74547 3.09083 6.34037 2.90678 7.43679 2.85458C8.62322 2.79833 8.97872 2.78708 11.9818 2.78056C14.9849 2.77403 15.3413 2.78528 16.5281 2.83748C17.6241 2.88518 18.2206 3.06676 18.6168 3.21998C19.1426 3.42248 19.5168 3.66571 19.9121 4.05901C20.3075 4.45231 20.5511 4.82558 20.7563 5.35163C20.9114 5.74696 21.0954 6.34163 21.1472 7.43873C21.2036 8.62516 21.2165 8.98088 21.2219 11.9837C21.2273 14.9866 21.2167 15.3432 21.1647 16.5287C21.1168 17.6256 20.935 18.2214 20.7822 18.6188C20.5797 19.1441 20.3356 19.5188 19.9427 19.9139C19.5499 20.309 19.1757 20.5524 18.6506 20.7576C18.2546 20.9122 17.659 21.0967 16.5635 21.1489C15.377 21.2047 15.0215 21.2164 12.0173 21.2229C9.01314 21.2294 8.65877 21.2173 7.47234 21.166M16.6433 5.98726C16.6438 6.25428 16.7234 6.51517 16.8721 6.73694C17.0209 6.95871 17.232 7.13139 17.4789 7.23314C17.7258 7.3349 17.9973 7.36115 18.2591 7.30859C18.5209 7.25603 18.7612 7.12701 18.9497 6.93785C19.1381 6.74869 19.2663 6.50788 19.3179 6.24589C19.3695 5.9839 19.3422 5.71249 19.2396 5.46599C19.1369 5.21949 18.9635 5.00897 18.7412 4.86105C18.5188 4.71314 18.2577 4.63447 17.9906 4.63501C17.6327 4.63572 17.2896 4.77858 17.037 5.03216C16.7843 5.28574 16.6427 5.62929 16.6433 5.98726ZM6.22359 12.0112C6.22989 15.2017 8.82099 17.7822 12.0108 17.7761C15.2006 17.7701 17.783 15.1792 17.7769 11.9887C17.7708 8.79818 15.179 6.21698 11.9888 6.22328C8.79849 6.22958 6.21752 8.82113 6.22359 12.0112ZM8.24994 12.0071C8.24847 11.2654 8.46698 10.54 8.87782 9.92246C9.28866 9.30495 9.87339 8.82313 10.5581 8.53794C11.2427 8.25275 11.9966 8.177 12.7243 8.32025C13.4521 8.46351 14.121 8.81935 14.6465 9.34276C15.1719 9.86618 15.5304 10.5337 15.6766 11.2608C15.8227 11.988 15.7499 12.7421 15.4675 13.4279C15.185 14.1137 14.7055 14.7004 14.0896 15.1137C13.4737 15.5269 12.7491 15.7483 12.0074 15.7498C11.515 15.7508 11.0271 15.6548 10.5717 15.4673C10.1163 15.2798 9.70236 15.0043 9.35343 14.6568C9.0045 14.3092 8.72746 13.8964 8.53812 13.4417C8.34878 12.9871 8.25086 12.4996 8.24994 12.0071Z" fill="#162E2E"/>
</g>
<defs>
<clipPath id="clip0_49_473">
<rect width="22.5" height="22.5" fill="white" transform="translate(0.75 0.75)"/>
</clipPath>
</defs>
</svg>
