<svg width="22" height="22" viewBox="0 0 22 22" fill="none" xmlns="http://www.w3.org/2000/svg">
<g id="Frame 1000003530">
<g id="Exclude">
<path d="M16.909 19.2752H20.7371L20.7387 12.5786C20.7387 9.2911 20.0233 6.7641 16.1431 6.7641C15.4154 6.73735 14.6937 6.90659 14.0552 7.25387C13.4167 7.6011 12.8851 8.11329 12.5171 8.73594H12.4658V7.06777H8.79087V19.2748H12.619V13.236C12.619 11.6436 12.9241 10.1013 14.9177 10.1013C16.8835 10.1013 16.909 11.9235 16.909 13.3391V19.2752Z" fill="#162E2E"/>
<path d="M3.23731 5.02864C3.60254 5.27029 4.03221 5.3992 4.47144 5.39915C4.76306 5.3991 5.0519 5.3421 5.32164 5.23155C5.45213 5.17799 5.57666 5.11239 5.69402 5.03575C5.81895 4.95409 5.93591 4.85995 6.04214 4.75457C6.24862 4.55027 6.41214 4.30777 6.52354 4.04086C6.63533 3.77394 6.69262 3.48793 6.69262 3.19904C6.69262 2.76398 6.56213 2.33872 6.31785 1.97702C6.07397 1.61536 5.72665 1.33348 5.32084 1.16707C4.91504 1.00062 4.46825 0.957154 4.03738 1.0421C3.60651 1.12704 3.21065 1.33661 2.89994 1.64431C2.58922 1.952 2.37796 2.34399 2.29202 2.77069C2.20649 3.1974 2.25065 3.63967 2.41894 4.0416C2.58723 4.44349 2.87169 4.78699 3.23731 5.02864Z" fill="#162E2E"/>
<path d="M2.55341 19.2752H6.38548V7.06777H2.55341V19.2752Z" fill="#162E2E"/>
</g>
</g>
</svg>
