<svg width="262" height="55" viewBox="0 0 262 55" fill="none" xmlns="http://www.w3.org/2000/svg">
<path d="M0.82666 0.55957H7.83132V53.7928H0.82666V0.55957Z" fill="#FBF7EC"/>
<path d="M10.5637 0.55957H17.5684L22.7514 32.0791H22.9617L28.1447 0.55957H35.2188V53.7928H28.7751V22.133H28.6349L24.7125 53.7928H21.07L17.1476 22.133H17.0074V53.7928H10.563V0.55957H10.5637Z" fill="#FBF7EC"/>
<path d="M43.9641 0.558838H51.529L58.8835 53.7921H51.8087L50.7584 44.1959H44.7347L43.6836 53.7921H36.6797L43.9641 0.558838ZM50.3377 37.7515L47.8864 10.7145H47.6761L45.1547 37.7515H50.3377Z" fill="#FBF7EC"/>
<path d="M59.3054 42.9359V11.2768C59.3054 3.64185 61.967 0 68.8314 0C74.785 0 78.4276 2.31175 78.4276 11.2768V21.1528H71.4931V9.66628C71.4931 6.93454 70.7926 5.67384 68.8314 5.67384C67.15 5.67384 66.2399 6.7249 66.2399 9.52604V43.7072C66.2399 45.3886 66.4503 47.4893 68.8314 47.4893C70.7225 47.4893 71.4931 46.0883 71.4931 43.4267V34.6712L75.205 31.4494H69.7415V25.005H78.4269V53.7927H74.0846L73.734 50.0808H73.5937C72.753 53.093 70.1615 54.2828 67.57 54.2828C62.8077 54.2828 59.3047 51.5511 59.3047 42.9359H59.3054Z" fill="#FBF7EC"/>
<path d="M80.877 0.55957H87.8816V53.7928H80.877V0.55957Z" fill="#FBF7EC"/>
<path d="M90.6133 0.55957H97.1271C98.8786 10.2251 100.489 18.8411 102.45 30.6782H102.591V0.55957H109.595V53.7928H103.291C101.469 44.7569 99.7887 36.7727 97.7575 25.5653H97.6179V53.7928H90.6133V0.55957Z" fill="#FBF7EC"/>
<path d="M112.254 0.55957H127.244V7.00328H119.259V22.2025H126.123V28.6462H119.259V47.3477H128.015V53.7921H112.255V0.55957H112.254Z" fill="#FBF7EC"/>
<path d="M135.366 0.558838H144.822C151.476 0.558838 154.488 4.48116 154.488 9.3143V45.0359C154.488 49.869 151.475 53.7913 144.822 53.7913H135.366V0.558838ZM144.822 47.4178C146.783 47.4178 147.554 46.5076 147.554 43.9154V10.5049C147.554 7.98348 146.713 6.93243 144.822 6.93243H142.301V47.4178H144.822Z" fill="#FBF7EC"/>
<path d="M156.939 0.558838H171.928V7.00255H163.944V22.2017H170.808V28.6454H163.944V47.3469H172.699V53.7913H156.94V0.558838H156.939Z" fill="#FBF7EC"/>
<path d="M181.176 0.558838V47.3476H190.282V53.7921H174.172V0.558838H181.177H181.176Z" fill="#FBF7EC"/>
<path d="M192.104 0.558838H199.109V53.7921H192.104V0.558838Z" fill="#FBF7EC"/>
<path d="M200.648 0.558838H207.652C208.983 13.447 210.314 26.4045 211.644 43.635H211.855C213.115 26.4045 214.516 13.447 215.777 0.558838H222.851L215.286 53.7921H208.072L200.648 0.558838Z" fill="#FBF7EC"/>
<path d="M224.248 0.558838H239.237V7.00255H231.252V22.2017H238.117V28.6454H231.252V47.3469H240.008V53.7913H224.248V0.558838H224.248Z" fill="#FBF7EC"/>
<path d="M241.475 0.55957H251.351C257.515 0.55957 260.596 4.55201 260.596 10.0155V19.0514C260.596 23.7443 258.775 26.1262 255.833 26.6163V26.6864C258.915 26.9669 260.526 29.3481 260.526 32.9906V50.5008C260.526 52.3926 260.596 52.8126 261.016 53.1624V53.7928H254.292C253.942 52.9521 253.802 52.1815 253.802 47.5587V33.06C253.802 31.3085 253.311 30.5386 251.771 30.5386H249.599C248.689 30.5386 248.479 30.9586 248.479 32.1499V53.7935H241.474V0.55957H241.475ZM251.632 23.6735C252.963 23.6735 253.803 22.6926 253.803 20.6613V10.5049C253.803 8.96372 253.523 6.93245 250.791 6.93245H248.48V23.6728H251.631L251.632 23.6735Z" fill="#FBF7EC"/>
</svg>
